<?xml version="1.0" encoding="UTF-8" standalone="no"?>
<svg
   xmlns:dc="http://purl.org/dc/elements/1.1/"
   xmlns:cc="http://creativecommons.org/ns#"
   xmlns:rdf="http://www.w3.org/1999/02/22-rdf-syntax-ns#"
   xmlns:svg="http://www.w3.org/2000/svg"
   xmlns="http://www.w3.org/2000/svg"
   xmlns:sodipodi="http://sodipodi.sourceforge.net/DTD/sodipodi-0.dtd"
   xmlns:inkscape="http://www.inkscape.org/namespaces/inkscape"
   viewBox="0 0 735 852"
   version="1.1"
   id="svg3781"
   sodipodi:docname="websocket_logo.svg"
   inkscape:version="0.92.2 5c3e80d, 2017-08-06"
   inkscape:export-filename="C:\Users\aland\Desktop\websocket.png"
   inkscape:export-xdpi="52.270451"
   inkscape:export-ydpi="52.270451">
  <metadata
     id="metadata3785">
    <rdf:RDF>
      <cc:Work
         rdf:about="">
        <dc:format>image/svg+xml</dc:format>
        <dc:type
           rdf:resource="http://purl.org/dc/dcmitype/StillImage" />
        <dc:title />
      </cc:Work>
    </rdf:RDF>
  </metadata>
  <sodipodi:namedview
     pagecolor="#ffffff"
     bordercolor="#666666"
     borderopacity="1"
     objecttolerance="10"
     gridtolerance="10"
     guidetolerance="10"
     inkscape:pageopacity="0"
     inkscape:pageshadow="2"
     inkscape:window-width="1870"
     inkscape:window-height="1169"
     id="namedview3783"
     showgrid="false"
     inkscape:zoom="1.074248"
     inkscape:cx="522.07298"
     inkscape:cy="438.19063"
     inkscape:window-x="834"
     inkscape:window-y="128"
     inkscape:window-maximized="0"
     inkscape:current-layer="svg3781" />
  <defs
     id="defs3762">
    <style
       id="style3750">
      tspan { white-space:pre; }
      .shp0 { fill:#cc6699; }
      .shp1 { opacity:0.251;fill:url(#grd1); }
      .shp2 { fill:#dadbdf; }
      .txt3 { font-size:25px;fill:#484c55;font-family:MyriadPro-Regular, Myriad Pro; }
      .shp4 { fill:none; }
      .cls-1 { fill:#555555; }
      .cls-2 { clip-path:url(#clip-path); }
      .cls-3 { fill:#db1f26; }
      .cls-4 { opacity:0.25;fill:url(#grd1); }
    </style>
    <linearGradient
       id="grd1"
       gradientUnits="userSpaceOnUse"
       x1="367.32"
       y1="-121.12"
       x2="368.62"
       y2="342.4">
      <stop
         offset="0"
         stop-color="#ffffff"
         stop-opacity="0.83"
         id="stop3752" />
      <stop
         offset="0.56"
         stop-color="#ffffff"
         stop-opacity="0.37"
         id="stop3754" />
      <stop
         offset="1"
         stop-color="#ffffff"
         stop-opacity="0"
         id="stop3756" />
    </linearGradient>
    <clipPath
       id="clip-path">
      <polygon
         class="cls-1"
         points="369.5 7.4 728.2 214.47 728.2 636.62 369.5 845.03 2.79 636.62 2.79 214.47 369.5 7.4"
         id="polygon3759" />
    </clipPath>
  </defs>
  <polygon
     class="shp0"
     points="369.5 7.4 728.2 214.47 728.2 636.62 369.5 845.03 2.79 636.62 2.79 214.47 369.5 7.4"
     id="polygon3764"
     style="fill:#a737a9;fill-opacity:1" />
  <path
     id="path3776"
     class="shp4"
     d="M300.38,503.07v0.15h0.07z" />
  <path
     style="color:#000000;font-style:normal;font-variant:normal;font-weight:normal;font-stretch:normal;font-size:medium;line-height:normal;font-family:sans-serif;font-variant-ligatures:normal;font-variant-position:normal;font-variant-caps:normal;font-variant-numeric:normal;font-variant-alternates:normal;font-feature-settings:normal;text-indent:0;text-align:start;text-decoration:none;text-decoration-line:none;text-decoration-style:solid;text-decoration-color:#000000;letter-spacing:normal;word-spacing:normal;text-transform:none;writing-mode:lr-tb;direction:ltr;text-orientation:mixed;dominant-baseline:auto;baseline-shift:baseline;text-anchor:start;white-space:normal;shape-padding:0;clip-rule:nonzero;display:inline;overflow:visible;visibility:visible;opacity:1;isolation:auto;mix-blend-mode:normal;color-interpolation:sRGB;color-interpolation-filters:linearRGB;solid-color:#000000;solid-opacity:1;vector-effect:none;fill:#ffffff;fill-opacity:1;fill-rule:nonzero;stroke:none;stroke-width:30.24110603;stroke-linecap:butt;stroke-linejoin:miter;stroke-miterlimit:4;stroke-dasharray:none;stroke-dashoffset:0;stroke-opacity:1;color-rendering:auto;image-rendering:auto;shape-rendering:auto;text-rendering:auto;enable-background:accumulate"
     d="m 369.52323,213.83789 c -18.40875,-0.22664 -36.99044,3.5709 -54.38086,11.60938 -46.37446,21.43592 -75.26645,68.86579 -73.03906,119.90625 2.22738,51.04046 35.14151,95.77524 83.20703,113.08984 39.155,14.10478 82.14816,7.74922 115.27148,-15.56836 0.0174,-0.0265 0.0293,-0.0364 0.0313,-0.0234 0.21851,-0.15392 0.43273,-0.3153 0.65039,-0.4707 0.0269,-0.0255 0.0633,-0.0737 0.084,-0.084 0.0201,-0.01 0.0287,-0.005 0.043,-0.008 0.0671,-0.048 0.13415,-0.0964 0.20117,-0.14453 -0.002,-0.0305 -0.0134,-0.0629 0,-0.0898 0.0145,-0.029 0.0436,-0.0467 0.0684,-0.0684 a 15.064877,15.064877 0 0 0 5.74023,-11.83008 15.064877,15.064877 0 0 0 -15.06445,-15.06445 15.064877,15.064877 0 0 0 -8.29297,2.49609 c 0.003,-0.0159 0.0112,-0.0333 0.0137,-0.0488 -25.29488,18.26856 -58.3228,23.32312 -88.49804,12.45313 -36.60639,-13.18668 -61.54583,-47.08496 -63.24219,-85.95703 -1.69637,-38.87207 20.19714,-74.81323 55.51562,-91.13868 28.977,-13.39419 62.13992,-11.31652 88.86524,4.47461 a 15.142747,15.142747 0 0 0 8.14648,2.39649 15.142747,15.142747 0 0 0 15.14258,-15.14258 15.142747,15.142747 0 0 0 -7.1543,-12.8418 c -6.4e-4,-0.001 -10e-4,-0.003 -0.002,-0.004 -0.0225,-0.0135 -0.0458,-0.0256 -0.0684,-0.0391 a 15.142747,15.142747 0 0 0 -0.91406,-0.52734 c -19.02969,-11.1736 -40.54788,-17.10691 -62.32422,-17.375 z"
     id="path4594"
     inkscape:connector-curvature="0" />
  <circle
     style="fill:#ffffff;fill-opacity:1;stroke:#ffffff;stroke-width:15.29227734;stroke-miterlimit:4;stroke-dasharray:none;stroke-opacity:1"
     id="path4594-0"
     cx="367.5"
     cy="340.79178"
     r="56.092785" />
  <path
     style="fill:none;stroke:#ffffff;stroke-width:30;stroke-linecap:butt;stroke-linejoin:miter;stroke-miterlimit:4;stroke-dasharray:none;stroke-opacity:1"
     d="m 415.48622,340.90082 303.3913,0"
     id="path4611"
     inkscape:connector-curvature="0"
     sodipodi:nodetypes="cc" />
  <flowRoot
     xml:space="preserve"
     id="flowRoot4690"
     style="fill:black;fill-opacity:1;stroke:none;font-family:sans-serif;font-style:normal;font-weight:normal;font-size:40px;line-height:1.25;letter-spacing:0px;word-spacing:0px"><flowRegion
       id="flowRegion4692"><rect
         id="rect4694"
         width="290"
         height="95"
         x="196"
         y="500" /></flowRegion><flowPara
       id="flowPara4696" /></flowRoot>  <flowRoot
     xml:space="preserve"
     id="flowRoot841"
     style="fill:black;fill-opacity:1;stroke:none;font-family:sans-serif;font-style:normal;font-weight:normal;font-size:40px;line-height:1.25;letter-spacing:0px;word-spacing:0px"><flowRegion
       id="flowRegion843"><rect
         id="rect845"
         width="315"
         height="113"
         x="217"
         y="543" /></flowRegion><flowPara
       id="flowPara847" /></flowRoot>  <g
     aria-label="websocket"
     transform="matrix(2.4759378,0,0,2.4759378,-347.49511,-803.55706)"
     style="font-style:normal;font-variant:normal;font-weight:normal;font-stretch:normal;font-size:53.33333206px;line-height:1.25;font-family:Vegur;-inkscape-font-specification:'Vegur, Normal';font-variant-ligatures:normal;font-variant-caps:normal;font-variant-numeric:normal;font-feature-settings:normal;text-align:start;letter-spacing:0px;word-spacing:0px;writing-mode:lr-tb;text-anchor:start;fill:#fffdff;fill-opacity:1;stroke:none"
     id="flowRoot849">
    <path
       d="m 203.30667,570.46667 7.46666,-25.49334 h -4.58666 l -3.09334,11.73334 c -0.85333,3.2 -1.6,6.4 -2.08,10.02666 -0.48,-3.62666 -1.17333,-6.82666 -2.02666,-10.02666 L 196,545.18667 h -4.48 l -3.04,11.52 c -0.85333,3.2 -1.6,6.4 -2.08,10.02666 -0.48,-3.62666 -1.12,-6.82666 -1.97333,-10.02666 l -3.09334,-11.73334 h -4.90666 l 7.46666,25.49334 h 4.96 l 2.50667,-9.49334 c 0.85333,-3.2 1.65333,-6.4 2.24,-10.50666 0.69333,4.10666 1.49333,7.30666 2.34667,10.50666 l 2.45333,9.49334 z"
       style=""
       id="path36" />
    <path
       d="m 232.01583,565.61333 c -1.81333,1.12 -4.21333,1.86667 -6.45333,1.86667 -5.12,0 -7.78667,-2.50667 -8.05333,-8.26667 h 15.94666 c 0.16,-0.85333 0.21333,-1.38666 0.21333,-2.18666 0,-6.93334 -2.72,-12.58667 -9.33333,-12.58667 -6.88,0 -11.41333,5.44 -11.41333,13.97333 0,8.32 4.53333,12.58667 11.57333,12.58667 2.98667,0 5.81333,-0.69333 7.73333,-1.76 z m -14.4,-9.97333 c 0.37334,-4.48 2.72,-7.46667 6.24,-7.46667 3.89333,0 5.38667,3.30667 5.38667,7.46667 z"
       style=""
       id="path38" />
    <path
       d="m 244.10667,531.26667 h -4.37334 v 39.2 H 243.68 l 0.26667,-4.32 c 0.85333,2.72 3.73333,4.85333 7.36,4.85333 6.77333,0 11.62666,-5.6 11.62666,-13.6 0,-7.73333 -4.42666,-12.96 -10.93333,-12.96 -3.57333,0 -6.34667,1.97333 -7.89333,4.96 z m 0,24.8 c 0,-4.42667 3.46666,-7.84 6.98666,-7.84 4.58667,0 7.04,4.26666 7.04,9.38666 0,5.97334 -3.09333,9.70667 -7.2,9.70667 -3.84,0 -6.82666,-3.68 -6.82666,-8.48 z"
       style=""
       id="path40" />
    <path
       d="m 266.71833,569.82667 c 2.02666,0.8 3.94666,1.17333 6.18666,1.17333 5.44,0 9.86667,-2.77333 9.86667,-7.68 0,-3.84 -2.13333,-5.97333 -6.98667,-7.52 -2.13333,-0.69333 -3.73333,-1.76 -3.73333,-4.26667 0,-2.02666 1.81333,-3.46666 4.26667,-3.46666 2.29333,0 4.32,0.53333 5.65333,1.33333 l 0.26667,-3.73333 c -1.33334,-0.69334 -3.68,-1.22667 -5.70667,-1.22667 -4.58667,0 -8.96,2.24 -8.96,7.57333 0,4.05334 2.4,5.92 6.77333,7.57334 2.72,1.01333 4,2.02666 4,4.05333 0,2.34667 -2.4,3.73333 -5.38666,3.73333 -1.92,0 -3.62667,-0.32 -5.97334,-1.22666 z"
       style=""
       id="path42" />
    <path
       d="m 298.51249,544.44 c -7.25333,0 -11.84,5.33333 -11.84,13.28 0,7.94667 4.58667,13.28 11.84,13.28 7.25334,0 11.84,-5.33333 11.84,-13.28 0,-7.94667 -4.58666,-13.28 -11.84,-13.28 z m 0,3.52 c 4.64,0 7.04,4.26667 7.04,9.76 0,5.49333 -2.4,9.76 -7.04,9.76 -4.64,0 -7.04,-4.26667 -7.04,-9.76 0,-5.49333 2.4,-9.76 7.04,-9.76 z"
       style=""
       id="path44" />
    <path
       d="m 333.10082,566.2 c -1.6,0.8 -3.57333,1.28 -5.38666,1.28 -5.38667,0 -8.53334,-3.41333 -8.53334,-9.76 0,-6.56 3.73334,-9.65333 8.48,-9.65333 2.24,0 4.16,0.53333 5.70667,1.38666 l 0.37333,-3.84 c -1.44,-0.69333 -3.68,-1.17333 -6.24,-1.17333 -6.88,0 -13.12,4.69333 -13.12,13.6 0,8.85333 5.44,12.96 12.37334,12.96 2.61333,0 4.96,-0.53333 6.72,-1.22667 z"
       style=""
       id="path46" />
    <path
       d="M 359.27083,570.46667 348.17749,556.76 359.11083,544.97333 h -5.44 l -10.29334,11.73334 v -25.44 h -4.37333 v 39.2 h 4.37333 v -9.65334 l 1.49334,-1.54666 8.42666,11.2 z"
       style=""
       id="path48" />
    <path
       d="m 380.5575,565.61333 c -1.81333,1.12 -4.21333,1.86667 -6.45333,1.86667 -5.12,0 -7.78667,-2.50667 -8.05334,-8.26667 h 15.94667 c 0.16,-0.85333 0.21333,-1.38666 0.21333,-2.18666 0,-6.93334 -2.72,-12.58667 -9.33333,-12.58667 -6.88,0 -11.41333,5.44 -11.41333,13.97333 0,8.32 4.53333,12.58667 11.57333,12.58667 2.98667,0 5.81333,-0.69333 7.73333,-1.76 z m -14.4,-9.97333 c 0.37333,-4.48 2.72,-7.46667 6.24,-7.46667 3.89333,0 5.38667,3.30667 5.38667,7.46667 z"
       style=""
       id="path50" />
    <path
       d="m 394.24832,545.18667 v -6.72 h -4.37333 v 6.72 h -4 V 548.6 h 4 v 14.82667 c 0,5.54666 2.98667,7.57333 7.25333,7.57333 1.49334,0 3.04,-0.32 4,-0.8 l -0.21333,-3.25333 c -0.90667,0.37333 -1.86667,0.48 -2.82667,0.48 -2.29333,0 -3.84,-1.33334 -3.84,-4.32 V 548.6 h 6.88 v -3.41333 z"
       style=""
       id="path52" />
  </g>
  <path
     style="fill:none;stroke:#ffffff;stroke-width:30;stroke-linecap:butt;stroke-linejoin:miter;stroke-miterlimit:4;stroke-dasharray:none;stroke-opacity:1"
     d="m 10.585639,341.02692 251.276941,0"
     id="path4611-4"
     inkscape:connector-curvature="0"
     sodipodi:nodetypes="cc" />
  <g
     class="cls-2"
     clip-path="url(#clip-path)"
     id="g3768">
    <!-- <circle id="sasscircle" class="cls-3" cx="365.5" cy="437.45" r="442.13"/> -->
    <ellipse
       class="cls-4"
       cx="367.96"
       cy="107.08"
       rx="315.24"
       ry="234.63"
       id="ellipse3766" />
  </g>
  <path
     id="Layer"
     class="shp2"
     d="M734.91,213.13v424.25l-29.3,16.92l-281.27,162.39l-56.85,32.82l-56.85,-32.82l-281.28,-162.4l-29.28,-16.91v-424.25l29.28,-16.91l277.82,-160.4l60.31,-34.82l60.32,34.82l277.8,160.39zM705.61,231l-338.12,-195.18l-338.13,195.18v390.47l338.13,195.21l338.12,-195.21z"
     style="fill:#8e1e90;fill-opacity:1" />
  <text
     xml:space="preserve"
     style="font-style:normal;font-variant:normal;font-weight:normal;font-stretch:normal;font-size:40px;line-height:1.25;font-family:Vegur;-inkscape-font-specification:Vegur;letter-spacing:0px;word-spacing:0px;fill:#000000;fill-opacity:1;stroke:none"
     x="229.92828"
     y="663.96149"
     id="text4593"><tspan
       sodipodi:role="line"
       id="tspan4591"
       style="white-space:pre"
       x="229.92828"
       y="699.56146" /></text>
</svg>
